<?xml version="1.0" encoding="UTF-8" standalone="no"?><!DOCTYPE svg PUBLIC
        "-//W3C//DTD SVG 1.1//EN" "http://www.w3.org/Graphics/SVG/1.1/DTD/svg11.dtd">
<svg width="100%" height="100%" viewBox="0 0 1663 352" version="1.1"
     xmlns="http://www.w3.org/2000/svg" xml:space="preserve"
     style="fill-rule:evenodd;clip-rule:evenodd;stroke-linecap:round;stroke-linejoin:round;stroke-miterlimit:10;"><rect id="Artboard1" x="0" y="0" width="1663" height="352" style="fill:none;"/>
    <clipPath id="_clip1"><rect x="0" y="0" width="1663" height="352"/></clipPath>
    <g clip-path="url(#_clip1)"><g id="Capa-6"><g transform="matrix(1,0,0,1,-606.731,-38.4458)"><path d="M640.696,196.831l106.23,0c-0.12,-18.066 -4.697,-32.008 -13.73,-41.824c-9.033,-9.816 -21.861,-14.724 -38.482,-14.724c-16.019,0 -28.635,4.818 -37.849,14.453c-9.214,9.636 -14.603,23.667 -16.169,42.095Zm105.508,51.851l32.158,0c-3.493,21.318 -12.767,38.12 -27.822,50.405c-15.056,12.285 -34.026,18.428 -56.91,18.428c-26.858,0 -48.056,-9.034 -63.593,-27.1c-15.538,-18.066 -23.306,-42.697 -23.306,-73.892c0,-33.001 7.708,-58.776 23.125,-77.324c15.417,-18.548 36.675,-27.822 63.774,-27.822c27.823,0 49.352,8.551 64.588,25.654c15.236,17.103 22.854,41.252 22.854,72.447c0,3.974 -0.03,6.925 -0.091,8.852c-0.06,1.927 -0.21,3.794 -0.451,5.601l-139.654,0c0.362,20.354 5.42,36.102 15.176,47.243c9.756,11.141 23.306,16.712 40.65,16.712c13.248,0 24.178,-3.403 32.79,-10.208c8.612,-6.805 14.182,-16.47 16.712,-28.996Z" style="fill:#2f2e2f;fill-rule:nonzero;"/><path
            d="M818.289,311.191l0,-193.491l31.435,0l0,34.688c5.179,-13.008 12.195,-22.734 21.047,-29.178c8.853,-6.443 19.723,-9.665 32.61,-9.665c2.409,0 4.156,0.03 5.24,0.09c1.084,0.06 2.168,0.211 3.252,0.452l0,34.326c-0.844,-0.12 -1.807,-0.211 -2.891,-0.271c-1.084,-0.06 -2.71,-0.09 -4.878,-0.09c-17.344,0 -30.562,4.727 -39.656,14.182c-9.093,9.455 -13.64,23.215 -13.64,41.282l0,107.675l-32.519,0Z"
            style="fill:#2f2e2f;fill-rule:nonzero;"/><path
            d="M965.891,196.831l106.231,0c-0.121,-18.066 -4.698,-32.008 -13.731,-41.824c-9.033,-9.816 -21.86,-14.724 -38.481,-14.724c-16.019,0 -28.636,4.818 -37.85,14.453c-9.213,9.636 -14.603,23.667 -16.169,42.095Zm105.508,51.851l32.158,0c-3.493,21.318 -12.767,38.12 -27.822,50.405c-15.056,12.285 -34.025,18.428 -56.909,18.428c-26.859,0 -48.057,-9.034 -63.594,-27.1c-15.537,-18.066 -23.306,-42.697 -23.306,-73.892c0,-33.001 7.709,-58.776 23.125,-77.324c15.417,-18.548 36.675,-27.822 63.775,-27.822c27.822,0 49.351,8.551 64.587,25.654c15.236,17.103 22.854,41.252 22.854,72.447c0,3.974 -0.03,6.925 -0.09,8.852c-0.061,1.927 -0.211,3.794 -0.452,5.601l-139.653,0c0.361,20.354 5.42,36.102 15.176,47.243c9.755,11.141 23.305,16.712 40.649,16.712c13.249,0 24.179,-3.403 32.79,-10.208c8.612,-6.805 14.183,-16.47 16.712,-28.996Z"
            style="fill:#2f2e2f;fill-rule:nonzero;"/><path
            d="M1293.8,119.146l0,192.045l-21.499,0l0,-30.712c-7.347,12.164 -16.29,21.197 -26.828,27.099c-10.539,5.902 -23.035,8.853 -37.488,8.853c-21.68,0 -37.97,-5.691 -48.87,-17.073c-10.9,-11.382 -16.35,-28.394 -16.35,-51.038l0,-129.174l22.222,0l0,123.935c0,19.15 3.613,32.76 10.84,40.83c7.226,8.07 19.271,12.105 36.133,12.105c18.427,0 32.971,-5.631 43.63,-16.892c10.659,-11.262 15.989,-26.709 15.989,-46.341l0,-113.637l22.221,0Z"
            style="fill:#2f2e2f;fill-rule:nonzero;"/><path
            d="M1335.53,251.392l22.221,0c0.603,13.248 5.631,23.998 15.086,32.248c9.455,8.25 21.589,12.376 36.404,12.376c16.019,0 28.635,-3.162 37.849,-9.485c9.214,-6.323 13.821,-14.905 13.821,-25.745c0,-15.537 -17.043,-27.401 -51.128,-35.591l-0.904,-0.18c-27.461,-6.625 -45.858,-13.911 -55.193,-21.861c-9.334,-7.949 -14.001,-19.03 -14.001,-33.242c0,-16.501 6.112,-29.9 18.337,-40.198c12.225,-10.298 28.154,-15.446 47.786,-15.446c21.559,0 38.722,5.389 51.489,16.169c12.767,10.78 19.813,25.745 21.138,44.895l-22.583,0c-0.964,-13.008 -5.841,-23.155 -14.634,-30.442c-8.792,-7.287 -20.716,-10.93 -35.771,-10.93c-13.129,0 -23.607,3.011 -31.436,9.033c-7.829,6.022 -11.743,13.972 -11.743,23.848c0,17.103 17.464,29.749 52.393,37.939c4.576,1.084 8.009,1.867 10.297,2.349c21.921,5.42 37.157,12.165 45.708,20.234c8.552,8.07 12.828,19.392 12.828,33.965c0,16.26 -6.715,29.509 -20.144,39.746c-13.43,10.238 -31.105,15.357 -53.025,15.357c-22.282,0 -40.168,-5.902 -53.658,-17.705c-13.489,-11.804 -20.535,-27.582 -21.137,-47.334Z"
            style="fill:#2f2e2f;fill-rule:nonzero;"/></g><g
            transform="matrix(1,0,0,1,-67.9145,-38.4458)"><rect x="1206.17" y="278.311" width="24.39" height="32.881" style="fill:#2f2e2f;fill-rule:nonzero;"/>
        <path d="M1277.92,215.439c0,25.775 5.691,45.769 17.073,59.981c11.382,14.212 27.371,21.318 47.966,21.318c20.837,0 36.916,-7.046 48.238,-21.137c11.321,-14.092 16.982,-34.146 16.982,-60.162c0,-26.015 -5.661,-46.099 -16.982,-60.251c-11.322,-14.152 -27.401,-21.228 -48.238,-21.228c-20.595,0 -36.584,7.106 -47.966,21.318c-11.382,14.213 -17.073,34.266 -17.073,60.161Zm-22.944,0c0,-32.158 7.678,-57.059 23.035,-74.704c15.356,-17.645 37.006,-26.467 64.948,-26.467c28.063,0 49.833,8.822 65.31,26.467c15.477,17.645 23.216,42.546 23.216,74.704c0,31.918 -7.709,56.669 -23.125,74.253c-15.417,17.585 -37.217,26.377 -65.401,26.377c-27.942,0 -49.592,-8.762 -64.948,-26.286c-15.357,-17.525 -23.035,-42.306 -23.035,-74.344Z"
              style="fill:#2f2e2f;fill-rule:nonzero;"/>
        <path d="M1461.75,311.191l0,-192.045l21.499,0l0,33.603c5.541,-12.887 13.219,-22.523 23.035,-28.906c9.816,-6.384 21.89,-9.575 36.223,-9.575l2.529,0l0,23.305l-2.89,0c-19.151,0 -33.514,5.661 -43.089,16.983c-9.575,11.321 -14.363,28.243 -14.363,50.766l0,105.869l-22.944,0Z"
              style="fill:#2f2e2f;fill-rule:nonzero;"/>
        <path d="M1580.54,215.439c0,25.414 5.751,45.377 17.253,59.891c11.503,14.513 27.311,21.77 47.425,21.77c20.595,0 36.614,-7.167 48.056,-21.499c11.442,-14.333 17.163,-34.387 17.163,-60.162c0,-25.895 -5.691,-45.948 -17.072,-60.161c-11.382,-14.212 -27.431,-21.318 -48.147,-21.318c-20.716,0 -36.675,7.046 -47.876,21.138c-11.201,14.091 -16.802,34.205 -16.802,60.341Zm150.312,-96.293l0,182.109c0,29.267 -7.678,51.369 -23.034,66.304c-15.357,14.934 -38.03,22.402 -68.02,22.402c-22.403,0 -40.499,-5.029 -54.29,-15.086c-13.79,-10.056 -21.348,-23.757 -22.673,-41.101l22.764,0c1.324,11.683 6.594,20.656 15.808,26.919c9.214,6.263 21.89,9.395 38.029,9.395c23.125,0 40.499,-5.721 52.122,-17.163c11.623,-11.442 17.434,-28.425 17.434,-50.947l0,-23.667c-7.829,12.766 -17.314,22.312 -28.455,28.635c-11.14,6.323 -23.998,9.485 -38.571,9.485c-26.377,0 -47.154,-9.003 -62.329,-27.01c-15.176,-18.006 -22.764,-42.666 -22.764,-73.982c0,-31.074 7.678,-55.704 23.035,-73.891c15.356,-18.187 36.042,-27.28 62.058,-27.28c14.814,0 27.762,3.191 38.842,9.575c11.081,6.383 20.355,15.898 27.823,28.545l0,-33.242l22.221,0Z"
              style="fill:#2f2e2f;fill-rule:nonzero;"/></g></g>
        <g id="Logo-01"><g><path d="M923.579,257.73c23.539,-74.208 71.556,-39.637 134.77,-58.074c103.229,-30.107 -0.306,-164.158 -88.542,-94.071c-89.261,70.902 -21.903,218.663 114.778,132.933" style="fill:none;stroke:#2f2e2f;stroke-width:31.19px;"/><path
                d="M919.559,272.813c24.379,-92.014 73.251,-67.062 128.012,-64.429c81.936,3.939 52.951,-114.011 -0.813,-127.759c-29.725,-7.6 -75.549,2.795 -102.982,45.027c-46.992,72.339 9.183,141.96 59.916,141.634c27.923,-0.18 50.949,-13.168 86.206,-33.85"
                style="fill:none;stroke:#bfff00;stroke-width:1.99px;"/><path
                d="M1091.67,233.531c-20.588,12.027 -42.756,23.424 -65.795,27.435c-23.7,4.127 -47.202,-2.464 -65.889,-18.07c-17.779,-14.845 -34.049,-35.948 -26.671,-67.323c9.291,-39.512 32.603,-74.373 70.926,-87.757c55.309,-19.316 106.626,14.436 89.444,85.71c-7.46,30.945 -74.748,35.062 -105.084,39.594c-61.903,9.248 -61.336,31.952 -75.41,62.133"
                style="fill:none;stroke:#bfff00;stroke-width:1.99px;"/><path
                d="M1090.48,233.103c-69.202,51.449 -146.324,17.542 -159.309,-32.037c-35.024,-133.731 178.16,-147.297 169.695,-33.699c-3.9,52.332 -165.551,-1.748 -188.927,99.919"
                style="fill:none;stroke:#bfff00;stroke-width:1.99px;"/><path
                d="M1097.8,210.782l16.49,29.997l-38.218,22.58c0,0 -6.054,4.155 -9.359,-0.827c-3.309,-4.988 -9.094,-15.022 -11.882,-21.039c-2.127,-4.596 3.872,-7.447 3.872,-7.447l39.097,-23.264Z"
                style="fill:#2f2e2f;fill-rule:nonzero;"/><path
                d="M1112.65,234.315l-11.786,-20.801l11.438,-6.48l11.785,20.801l-11.437,6.48Z"
                style="fill:#2f2e2f;fill-rule:nonzero;"/><path d="M1111.95,213.12l-6.008,3.554"
                                                               style="fill:none;stroke:#bfff00;stroke-width:1.79px;stroke-linejoin:miter;"/><path
                d="M1118.6,225.335l-6.008,3.554"
                style="fill:none;stroke:#bfff00;stroke-width:1.79px;stroke-linejoin:miter;"/><path
                d="M1112.67,218.092l-4.371,2.586"
                style="fill:none;stroke:#bfff00;stroke-width:1.79px;stroke-linejoin:miter;"/><path
                d="M1115.08,222.011l-4.372,2.586"
                style="fill:none;stroke:#bfff00;stroke-width:1.79px;stroke-linejoin:miter;"/></g></g></g></svg>
