<?xml version="1.0" encoding="UTF-8" standalone="no"?><!DOCTYPE svg PUBLIC
        "-//W3C//DTD SVG 1.1//EN" "http://www.w3.org/Graphics/SVG/1.1/DTD/svg11.dtd">
<svg xmlns:serif="http://www.serif.com/" width="100%" height="100%" viewBox="0 0 46 46"
     version="1.1" xmlns="http://www.w3.org/2000/svg" xml:space="preserve"
     style="fill-rule:evenodd;clip-rule:evenodd;stroke-linecap:round;stroke-linejoin:round;stroke-miterlimit:10;"><rect id="Photochromic-alone" serif:id="Photochromic alone" x="0" y="0" width="45.84" height="45.84" style="fill:none;"/>
    <path d="M43.96,23.198c0,-11.622 -9.436,-21.058 -21.058,-21.058l-0.404,0c-11.622,0 -21.058,9.436 -21.058,21.058l0,0.404c0,11.622 9.436,21.058 21.058,21.058l0.404,0c11.622,0 21.058,-9.436 21.058,-21.058l0,-0.404Z"
          style="fill:#fff;"/>
    <clipPath id="_clip1"><path d="M43.96,23.198c0,-11.622 -9.436,-21.058 -21.058,-21.058l-0.404,0c-11.622,0 -21.058,9.436 -21.058,21.058l0,0.404c0,11.622 9.436,21.058 21.058,21.058l0.404,0c11.622,0 21.058,-9.436 21.058,-21.058l0,-0.404Z"/></clipPath>
    <g clip-path="url(#_clip1)"><clipPath id="_clip2"><rect x="4.275" y="4.975" width="36.85" height="36.85"/></clipPath>
        <g clip-path="url(#_clip2)"><g id="Artboard1"><rect x="4.275" y="4.975" width="36.71" height="36.701" style="fill:none;"/><g
                id="Logo-01"><path d="M6.749,38.053c4.02,-13.193 12.218,-7.047 23.011,-10.325c17.626,-5.353 -0.052,-29.186 -15.117,-16.725c-15.241,12.606 -3.74,38.876 19.597,23.634" style="fill:none;stroke:#bfff04;stroke-width:4.6px;"/>
            <path d="M36.496,29.706l2.816,5.333l-6.526,4.015c0,0 -1.033,0.738 -1.598,-0.147c-0.565,-0.887 -1.553,-2.671 -2.028,-3.741c-0.364,-0.817 0.661,-1.324 0.661,-1.324l6.675,-4.136Z"
                  style="fill:#bfff04;fill-rule:nonzero;stroke:#bfff04;stroke-width:0.17px;stroke-linecap:butt;stroke-miterlimit:1.41421;"/>
            <path d="M39.031,33.89l-2.012,-3.698l1.953,-1.153l2.012,3.699l-1.953,1.152Z"
                  style="fill:#bfff04;fill-rule:nonzero;stroke:#bfff04;stroke-width:0.17px;stroke-linecap:butt;stroke-miterlimit:1.41421;"/></g></g></g></g>
    <path d="M43.96,23.198c0,-11.622 -9.436,-21.058 -21.058,-21.058l-0.404,0c-11.622,0 -21.058,9.436 -21.058,21.058l0,0.404c0,11.622 9.436,21.058 21.058,21.058l0.404,0c11.622,0 21.058,-9.436 21.058,-21.058l0,-0.404Z"
          style="fill:none;stroke:#333;stroke-width:0.1px;stroke-linejoin:miter;stroke-miterlimit:11;"/></svg>
