<?xml version="1.0" encoding="UTF-8" standalone="no"?><!DOCTYPE svg PUBLIC
        "-//W3C//DTD SVG 1.1//EN" "http://www.w3.org/Graphics/SVG/1.1/DTD/svg11.dtd">
<svg xmlns:serif="http://www.serif.com/" width="100%" height="100%" viewBox="0 0 124 44"
     version="1.1" xmlns="http://www.w3.org/2000/svg" xml:space="preserve"
     style="fill-rule:evenodd;clip-rule:evenodd;stroke-linecap:round;stroke-miterlimit:11;"><rect id="Photochromic-Tag-web" serif:id="Photochromic Tag web" x="0" y="0" width="123.413" height="43.733" style="fill:none;"/>
    <clipPath id="_clip1"><rect x="0" y="0" width="123.413" height="43.733"/></clipPath>
    <g clip-path="url(#_clip1)"><g><path d="M44.175,28.681l0,-4.925l24.55,0l0,-2.496l10.513,4.959l-10.513,4.958l0,-2.496l-24.55,0Z" style="fill:#333;stroke:#333;stroke-width:0.85px;"/><text
            x="49.508px" y="19.727px"
            style="font-family:'Lato-Regular', 'Lato', sans-serif;font-size:24.107px;fill:#231f20;">6s</text></g>
        <path d="M42.52,21.058c0,-11.622 -9.436,-21.058 -21.058,-21.058l-0.404,0c-11.622,0 -21.058,9.436 -21.058,21.058l0,0.404c0,11.622 9.436,21.058 21.058,21.058l0.404,0c11.622,0 21.058,-9.436 21.058,-21.058l0,-0.404Z"
              style="fill:#fff;"/>
        <clipPath id="_clip2"><path d="M42.52,21.058c0,-11.622 -9.436,-21.058 -21.058,-21.058l-0.404,0c-11.622,0 -21.058,9.436 -21.058,21.058l0,0.404c0,11.622 9.436,21.058 21.058,21.058l0.404,0c11.622,0 21.058,-9.436 21.058,-21.058l0,-0.404Z"/></clipPath>
        <g clip-path="url(#_clip2)"><clipPath id="_clip3"><rect x="2.835" y="2.835" width="36.85" height="36.85"/></clipPath>
            <g clip-path="url(#_clip3)"><g id="Artboard1"><rect x="2.835" y="2.835" width="36.71" height="36.701" style="fill:none;"/><g
                    id="Logo-01"><path d="M5.309,35.913c4.02,-13.194 12.218,-7.047 23.011,-10.325c17.626,-5.353 -0.052,-29.186 -15.117,-16.725c-15.241,12.605 -3.74,38.876 19.597,23.634" style="fill:none;stroke:#bfff04;stroke-width:4.6px;stroke-linejoin:round;stroke-miterlimit:10;"/>
                <path d="M35.056,27.566l2.816,5.333l-6.526,4.014c0,0 -1.033,0.739 -1.598,-0.147c-0.565,-0.886 -1.553,-2.67 -2.028,-3.74c-0.364,-0.817 0.661,-1.324 0.661,-1.324l6.675,-4.136Z"
                      style="fill:#bfff04;fill-rule:nonzero;stroke:#bfff04;stroke-width:0.17px;stroke-linecap:butt;stroke-linejoin:round;stroke-miterlimit:1.41421;"/>
                <path d="M37.591,31.75l-2.012,-3.699l1.953,-1.152l2.012,3.699l-1.953,1.152Z"
                      style="fill:#bfff04;fill-rule:nonzero;stroke:#bfff04;stroke-width:0.17px;stroke-linecap:butt;stroke-linejoin:round;stroke-miterlimit:1.41421;"/></g></g></g></g>
        <path d="M42.52,21.058c0,-11.622 -9.436,-21.058 -21.058,-21.058l-0.404,0c-11.622,0 -21.058,9.436 -21.058,21.058l0,0.404c0,11.622 9.436,21.058 21.058,21.058l0.404,0c11.622,0 21.058,-9.436 21.058,-21.058l0,-0.404Z"
              style="fill:none;stroke:#333;stroke-width:0.1px;"/>
        <path d="M123.005,21.058c0,-11.622 -9.436,-21.058 -21.058,-21.058l-0.404,0c-11.622,0 -21.058,9.436 -21.058,21.058l0,0.404c0,11.622 9.436,21.058 21.058,21.058l0.404,0c11.622,0 21.058,-9.436 21.058,-21.058l0,-0.404Z"
              style="fill:#fff;"/>
        <clipPath id="_clip4"><path d="M123.005,21.058c0,-11.622 -9.436,-21.058 -21.058,-21.058l-0.404,0c-11.622,0 -21.058,9.436 -21.058,21.058l0,0.404c0,11.622 9.436,21.058 21.058,21.058l0.404,0c11.622,0 21.058,-9.436 21.058,-21.058l0,-0.404Z"/></clipPath>
        <g clip-path="url(#_clip4)"><clipPath id="_clip5"><rect x="83.32" y="2.835" width="36.85" height="36.85"/></clipPath>
            <g clip-path="url(#_clip5)"><g id="Artboard11" serif:id="Artboard1"><rect x="83.32" y="2.835" width="36.71" height="36.701" style="fill:none;"/><path
                    d="M114.217,23.7c0.896,-2.192 1.142,-4.517 0.713,-6.743c-1.347,-6.998 -8.906,-11.33 -16.87,-9.668c-7.965,1.662 -13.337,8.693 -11.99,15.691c0.428,2.225 1.516,4.273 3.153,5.936l24.994,-5.216Z"
                    style="fill:#e5f20d;"/><g id="Logo-011" serif:id="Logo-01"><path d="M85.795,35.92c4.019,-13.193 12.217,-7.047 23.01,-10.325c17.626,-5.353 -0.052,-29.186 -15.117,-16.725c-15.241,12.606 -3.74,38.876 19.597,23.634" style="fill:none;stroke:#bfff04;stroke-width:4.6px;stroke-linejoin:round;stroke-miterlimit:10;"/>
                <path d="M115.541,27.573l2.816,5.333l-6.526,4.015c0,0 -1.033,0.738 -1.597,-0.147c-0.565,-0.887 -1.553,-2.671 -2.029,-3.741c-0.363,-0.817 0.661,-1.324 0.661,-1.324l6.675,-4.136Z"
                      style="fill:#bfff04;fill-rule:nonzero;stroke:#bfff04;stroke-width:0.17px;stroke-linecap:butt;stroke-linejoin:round;stroke-miterlimit:1.41421;"/>
                <path d="M118.077,31.757l-2.013,-3.698l1.953,-1.152l2.013,3.698l-1.953,1.152Z"
                      style="fill:#bfff04;fill-rule:nonzero;stroke:#bfff04;stroke-width:0.17px;stroke-linecap:butt;stroke-linejoin:round;stroke-miterlimit:1.41421;"/></g></g></g></g>
        <path d="M123.005,21.058c0,-11.622 -9.436,-21.058 -21.058,-21.058l-0.404,0c-11.622,0 -21.058,9.436 -21.058,21.058l0,0.404c0,11.622 9.436,21.058 21.058,21.058l0.404,0c11.622,0 21.058,-9.436 21.058,-21.058l0,-0.404Z"
              style="fill:none;stroke:#333;stroke-width:0.1px;"/></g></svg>
